<svg width="14" height="8" viewBox="0 0 14 8" fill="none" xmlns="http://www.w3.org/2000/svg">
<path d="M13.5675 1.06754L7.31754 7.31754C7.25949 7.37565 7.19056 7.42175 7.11469 7.4532C7.03881 7.48465 6.95748 7.50084 6.87535 7.50084C6.79321 7.50084 6.71188 7.48465 6.63601 7.4532C6.56014 7.42175 6.49121 7.37565 6.43316 7.31754L0.18316 1.06754C0.0658846 0.95026 0 0.7912 0 0.625347C0 0.459495 0.0658846 0.300435 0.18316 0.18316C0.300435 0.0658843 0.459495 0 0.625347 0C0.7912 0 0.95026 0.0658843 1.06753 0.18316L6.87535 5.99175L12.6832 0.18316C12.7412 0.125091 12.8102 0.0790281 12.886 0.0476015C12.9619 0.0161748 13.0432 0 13.1253 0C13.2075 0 13.2888 0.0161748 13.3647 0.0476015C13.4405 0.0790281 13.5095 0.125091 13.5675 0.18316C13.6256 0.241229 13.6717 0.310167 13.7031 0.386037C13.7345 0.461908 13.7507 0.543226 13.7507 0.625347C13.7507 0.707469 13.7345 0.788787 13.7031 0.864658C13.6717 0.940528 13.6256 1.00947 13.5675 1.06754Z" fill="#013941"/>
</svg>
